<svg width="400" height="400" viewBox="0 0 400 400" fill="none" xmlns="http://www.w3.org/2000/svg">
<path d="M81.69 227.9C97.0987 227.9 109.59 215.409 109.59 200C109.59 184.591 97.0987 172.1 81.69 172.1C66.2812 172.1 53.79 184.591 53.79 200C53.79 215.409 66.2812 227.9 81.69 227.9Z" stroke="#6A0BFF" stroke-width="12" stroke-miterlimit="10" stroke-linecap="round" stroke-linejoin="round"/>
<path d="M200 227.9C215.409 227.9 227.9 215.409 227.9 200C227.9 184.591 215.409 172.1 200 172.1C184.591 172.1 172.1 184.591 172.1 200C172.1 215.409 184.591 227.9 200 227.9Z" stroke="#191919" stroke-width="12" stroke-miterlimit="10" stroke-linecap="round" stroke-linejoin="round"/>
<path d="M318.31 227.9C333.719 227.9 346.21 215.409 346.21 200C346.21 184.591 333.719 172.1 318.31 172.1C302.901 172.1 290.41 184.591 290.41 200C290.41 215.409 302.901 227.9 318.31 227.9Z" stroke="#191919" stroke-width="12" stroke-miterlimit="10" stroke-linecap="round" stroke-linejoin="round"/>
</svg>
